<svg width="170" height="40" viewBox="0 0 170 40" fill="none" xmlns="http://www.w3.org/2000/svg">
<path fill-rule="evenodd" clip-rule="evenodd" d="M34.082 14.5188V6.27131H25.793L20.013 0.499451L14.233 6.18934H5.862V14.4368L0 20.2077L5.945 25.9795V34.227H14.235L20.015 39.9989L25.793 34.227H34.165V26.0615L40.029 20.2897L34.082 14.5188ZM5.113 21.9397L3.773 20.6195C3.7228 20.5712 3.68291 20.5134 3.65567 20.4497C3.62843 20.3859 3.6144 20.3174 3.6144 20.2482C3.6144 20.179 3.62843 20.1105 3.65567 20.0467C3.68291 19.9829 3.7228 19.9252 3.773 19.8769L5.196 18.4747C5.2364 18.4377 5.28788 18.4147 5.34268 18.4091C5.39747 18.4036 5.45261 18.4157 5.49978 18.4438C5.54695 18.4719 5.58361 18.5144 5.60421 18.5648C5.62481 18.6153 5.62825 18.671 5.614 18.7235L5.697 21.6919C5.697 22.0217 5.362 22.1047 5.113 21.9397ZM29.144 8.663H31.07C31.32 8.663 31.655 8.8289 31.57 9.15674V11.1317C31.57 11.3796 31.235 11.4625 31.151 11.2966L28.973 9.15279C28.9244 9.11915 28.8881 9.0709 28.8696 9.01523C28.8511 8.95957 28.8513 8.89948 28.8702 8.84393C28.8891 8.78838 28.9256 8.74037 28.9745 8.70704C29.0233 8.67372 29.0817 8.65688 29.141 8.65905L29.144 8.663ZM18.423 5.61265L19.763 4.29337C20.015 4.12846 20.349 4.0465 20.516 4.29337L21.939 5.61265C21.977 5.65764 22.0009 5.7126 22.0078 5.7708C22.0146 5.829 22.0042 5.88791 21.9776 5.94031C21.9511 5.99272 21.9096 6.03634 21.8584 6.06584C21.8071 6.09534 21.7482 6.10944 21.689 6.1064H18.675C18.6147 6.11233 18.554 6.10008 18.5008 6.07126C18.4477 6.04244 18.4047 5.9984 18.3774 5.94494C18.3501 5.89149 18.3399 5.83112 18.348 5.77181C18.3561 5.71249 18.3823 5.657 18.423 5.61265ZM8.206 11.0547V9.23969C8.289 8.91086 8.458 8.663 8.792 8.663H10.718C10.7783 8.65707 10.839 8.66932 10.8922 8.69814C10.9453 8.72696 10.9883 8.771 11.0156 8.82445C11.0429 8.87791 11.0531 8.93827 11.045 8.99759C11.0369 9.05691 11.0107 9.11239 10.97 9.15674L8.793 11.2976C8.74118 11.3352 8.68032 11.3589 8.61643 11.3662C8.55254 11.3735 8.48783 11.3642 8.42867 11.3393C8.36951 11.3144 8.31795 11.2746 8.27908 11.224C8.24021 11.1734 8.21536 11.1137 8.207 11.0507L8.206 11.0547ZM10.886 31.9173H8.96C8.89362 31.9199 8.82741 31.909 8.76553 31.8851C8.70366 31.8612 8.64746 31.825 8.60049 31.7786C8.55351 31.7322 8.51678 31.6767 8.4926 31.6156C8.46842 31.5545 8.45732 31.4891 8.46 31.4236L8.377 29.5276C8.37146 29.4682 8.3842 29.4085 8.41356 29.3564C8.44292 29.3043 8.48754 29.2621 8.54157 29.2354C8.5956 29.2088 8.65652 29.1988 8.71637 29.2069C8.77622 29.215 8.8322 29.2407 8.877 29.2807L11.137 31.4236C11.304 31.5885 11.137 31.9173 10.886 31.9173ZM21.686 34.8047L20.346 36.125C20.3019 36.1827 20.2449 36.2294 20.1794 36.2617C20.1139 36.2939 20.0417 36.3106 19.9685 36.3106C19.8953 36.3106 19.8231 36.2939 19.7576 36.2617C19.6921 36.2294 19.6351 36.1827 19.591 36.125L18.172 34.7998C18.1352 34.7607 18.1097 34.7126 18.0983 34.6605C18.0869 34.6083 18.0899 34.5541 18.1072 34.5035C18.1244 34.4529 18.1551 34.4079 18.1961 34.3731C18.237 34.3384 18.2868 34.3152 18.34 34.306H21.44C21.5002 34.3003 21.5608 34.3128 21.6138 34.3417C21.6667 34.3706 21.7096 34.4146 21.7367 34.468C21.7639 34.5214 21.774 34.5817 21.7659 34.6409C21.7577 34.7001 21.7316 34.7555 21.691 34.7998L21.686 34.8047ZM23.194 31.5055H16.494C16.0572 31.5631 15.6128 31.5102 15.2024 31.3516C14.792 31.193 14.4292 30.934 14.148 30.599L9.295 25.8137C8.92677 25.5028 8.64227 25.1067 8.4669 24.6607C8.29152 24.2148 8.23075 23.7328 8.29 23.258V16.7406C8.28193 16.3151 8.35925 15.8922 8.51749 15.4962C8.67574 15.1003 8.91177 14.7393 9.212 14.4339L14.321 9.39769C14.5998 9.13949 14.9294 8.94054 15.2892 8.81315C15.6491 8.68576 16.0315 8.63264 16.413 8.65707H23.279C23.6956 8.59641 24.1211 8.64013 24.5161 8.78421C24.9112 8.92828 25.2633 9.1681 25.54 9.48162L30.482 14.347C30.8061 14.6209 31.0642 14.9629 31.2372 15.3481C31.4102 15.7332 31.4939 16.1516 31.482 16.5728V23.6649C31.5405 24.0794 31.4773 24.5018 31.3001 24.8819C31.1228 25.2621 30.8389 25.5841 30.482 25.8097L25.792 30.5111C25.4649 30.8623 25.06 31.1341 24.609 31.3054C24.1581 31.4767 23.6731 31.5428 23.192 31.4986L23.194 31.5055ZM31.65 31.1757C31.568 31.4216 31.399 31.7524 31.065 31.7524H29.141C29.0808 31.7579 29.0204 31.7453 28.9676 31.7163C28.9148 31.6873 28.8721 31.6432 28.8451 31.5899C28.8181 31.5365 28.808 31.4764 28.8162 31.4173C28.8244 31.3582 28.8505 31.3029 28.891 31.2586L31.068 29.1138C31.108 29.0624 31.1627 29.024 31.2251 29.0037C31.2875 28.9834 31.3546 28.9821 31.4177 29C31.4809 29.0179 31.5371 29.0541 31.579 29.104C31.621 29.1539 31.6468 29.2152 31.653 29.2797V31.1767L31.65 31.1757ZM34.666 21.9407C34.5 22.1047 34.166 21.9407 34.246 21.7748V18.7235C34.162 18.3927 34.582 18.3107 34.746 18.4747L36.086 19.7949C36.252 20.0418 36.336 20.3716 36.086 20.5355L34.662 21.9388L34.666 21.9407ZM28.719 25.075L20.263 10.478C19.928 9.89933 19.425 9.89933 19.007 10.478L10.8 24.994C10.632 25.4058 10.8 25.8996 11.554 25.8996H28.054C28.64 25.8996 28.974 25.6527 28.723 25.076L28.719 25.075ZM26.461 24.1665H14.404C14.3109 24.1786 14.2162 24.1648 14.1305 24.1267C14.0449 24.0885 13.9717 24.0276 13.9193 23.9506C13.8668 23.8737 13.8371 23.7838 13.8335 23.6911C13.83 23.5984 13.8526 23.5066 13.899 23.4259L19.931 12.8697C20.181 12.4569 20.601 12.5389 20.853 12.8697L26.964 23.5069C27.131 23.9197 26.881 24.1655 26.464 24.1655L26.461 24.1665ZM25.622 22.5184L21.184 14.6847C21.1487 14.6283 21.0994 14.5818 21.0407 14.5496C20.9821 14.5173 20.9161 14.5004 20.849 14.5004C20.7819 14.5004 20.7159 14.5173 20.6573 14.5496C20.5986 14.5818 20.5493 14.6283 20.514 14.6847L16.077 22.4355C16.0514 22.4946 16.0401 22.5588 16.0439 22.623C16.0478 22.6872 16.0667 22.7497 16.0992 22.8054C16.1317 22.8612 16.1768 22.9087 16.2311 22.9442C16.2854 22.9798 16.3473 23.0023 16.412 23.0102H25.289C25.624 22.9282 25.789 22.8463 25.624 22.5164L25.622 22.5184ZM19.093 21.1152C18.925 21.1152 18.842 21.0322 18.925 20.8683L21.187 16.9125C21.355 16.7466 21.439 16.7466 21.521 16.9125L23.867 20.8683C23.951 21.0332 23.867 21.1152 23.699 21.1152H19.093Z" fill="#DAB177"/>
<path fill-rule="evenodd" clip-rule="evenodd" d="M153.413 14.0241V18.8055C152.995 16.2499 151.32 14.0241 147.971 14.0241H141.944V22.8453H135.916V21.527H140.354V18.4747H135.916V17.2354H141.277V14.0201H131.728V17.2354C131.226 15.0919 129.635 14.0201 126.956 14.0201H120.34V22.1007C111.84 25.4512 111.917 15.2505 119.671 17.4842L119.335 14.185C115.148 13.3605 111.882 14.185 109.959 17.4842C109.621 15.7531 108.619 14.1041 105.602 14.0201H98.9018V22.7594H92.8708V21.523H97.3098V18.4707H92.8708V17.1564H98.2308V14.0231H72.9378V20.6195L69.6728 14.0231H64.8978V22.7623H58.6168V21.526H63.0568V18.5556H58.6168V17.2354H63.8928V14.1031H54.4298V22.1017C50.9978 23.5039 48.2298 23.2571 48.2298 20.0398C48.2298 17.3173 50.8298 16.4948 53.9298 17.5711L53.5118 14.19C47.9018 13.0346 44.0488 15.1775 43.9658 20.2907C43.9658 24.5793 48.6538 27.2188 54.4308 25.5697V25.8986H68.6688V19.714L71.8508 25.8986H76.7898V17.0754H80.7258V25.8986H85.0808V17.1564H88.6808V25.8976H102.915V17.1564H104.255C105.009 17.1564 105.595 17.4013 105.595 18.2278C105.512 19.2153 104.674 19.4651 103.251 19.2153L105.177 25.8966H109.696L107.773 20.9473C108.204 20.8451 108.604 20.6418 108.939 20.3546C109.273 20.0673 109.533 19.7047 109.696 19.2972C109.696 26.0605 115.645 26.8881 120.333 25.4838V25.8966H124.433V17.1564H125.772C126.78 17.1564 127.029 17.7331 127.029 18.2278C127.114 19.0514 126.11 19.4651 124.686 19.2153L126.695 25.8966H130.965L129.125 20.9473C129.712 20.8526 130.263 20.6038 130.719 20.2268C131.175 19.8498 131.521 19.3585 131.719 18.8045V25.8966H148.719C151.065 25.8966 152.819 24.2465 153.409 21.526V25.8966H157.764V17.1564H162.044V25.8976H166.398V17.1564H169.748V14.0231L153.413 14.0241ZM147.383 22.7633H146.044V17.4023H147.553C148.388 17.4023 148.893 18.3107 148.893 20.0428C148.976 21.9397 148.393 22.7633 147.383 22.7633Z" fill="#00804D"/>
</svg>
