<svg width="84" height="84" viewBox="0 0 84 84" fill="none" xmlns="http://www.w3.org/2000/svg">
<path d="M84 42C84 65.196 65.196 84 42 84C18.804 84 0 65.196 0 42C0 18.804 18.804 0 42 0C65.196 0 84 18.804 84 42Z" fill="#C84F4F" fill-opacity="0.3"/>
<path d="M10.9873 42C10.9873 24.875 24.8748 10.9875 41.9998 10.9875C59.1248 10.9875 73.0123 24.875 73.0123 42C73.0123 59.125 59.1248 73.0125 41.9998 73.0125C24.8748 73.0125 10.9873 59.125 10.9873 42Z" fill="#E84849"/>
<path d="M64.5502 54.6875L43.2752 20.4C43.0252 20 42.5877 19.7625 42.1252 19.7625C41.6502 19.7625 41.2127 20 40.9752 20.4L19.6252 54.775C19.3627 55.2 19.3502 55.725 19.5877 56.15C19.8252 56.575 20.2877 56.85 20.7752 56.85H63.4377C64.1877 56.85 64.8002 56.2375 64.8002 55.4875C64.8127 55.1875 64.7127 54.9125 64.5502 54.6875Z" fill="#EDC92C"/>
<path d="M40.5376 42.675L40.1001 36.075C40.0126 34.7875 39.9751 33.8625 39.9751 33.3C39.9751 32.5375 40.1751 31.9375 40.5751 31.5125C40.9751 31.0875 41.5001 30.875 42.1501 30.875C42.9376 30.875 43.4751 31.15 43.7376 31.7C44.0001 32.25 44.1376 33.0375 44.1376 34.0625C44.1376 34.675 44.1001 35.2875 44.0376 35.9125L43.4501 42.7C43.3876 43.5125 43.2501 44.125 43.0376 44.5625C42.8251 45 42.4751 45.2125 41.9876 45.2125C41.4876 45.2125 41.1501 45 40.9501 44.5875C40.7626 44.1625 40.6251 43.525 40.5376 42.675ZM42.0751 51.7375C41.5126 51.7375 41.0251 51.5625 40.6126 51.2C40.2001 50.8375 39.9876 50.325 39.9876 49.675C39.9876 49.1 40.1876 48.625 40.5876 48.225C40.9876 47.825 41.4751 47.625 42.0501 47.625C42.6251 47.625 43.1251 47.825 43.5376 48.225C43.9501 48.625 44.1501 49.1125 44.1501 49.675C44.1501 50.3125 43.9376 50.825 43.5251 51.1875C43.1001 51.5625 42.6251 51.7375 42.0751 51.7375Z" fill="black"/>
</svg>
