<svg width="111" height="145" viewBox="0 0 111 145" fill="none" xmlns="http://www.w3.org/2000/svg">
<g clip-path="url(#clip0)">
<path d="M26.2424 80.4542C26.2424 80.4542 19.6794 98.0545 18.6065 101.857C18.6065 101.857 9.14866 78.7096 22.4245 71.683L26.2424 80.4542Z" fill="#903E2D"/>
<path d="M26.8077 69.7746L20.8053 91.2882C20.8053 91.2882 13.1743 80.8495 15.0832 70.8493C16.9922 60.8492 25.8943 58.7335 25.8943 58.7335L26.8077 69.7746Z" fill="#A55319"/>
<path d="M30.5631 51.8033L24.5607 73.3169C24.5607 73.3169 16.9296 62.8782 18.8386 52.878C20.7476 42.8778 29.6497 40.7621 29.6497 40.7621L30.5631 51.8033Z" fill="#E95052"/>
<path d="M36.0096 31.9089C36.0096 31.9089 29.4466 49.5092 28.3737 53.3117C28.3737 53.3117 18.9158 30.1643 32.1916 23.1377L36.0096 31.9089Z" fill="#EF8037"/>
<path d="M45.4721 16.1111C45.4721 16.1111 38.8173 23.5907 34.4194 35.615C34.4194 35.615 32.7038 30.1547 32.1915 27.1088C31.0606 20.3955 34.9075 11.3062 40.9776 10.7086C47.0477 10.111 45.1725 15.552 45.4721 16.1111Z" fill="#A55319"/>
<path d="M61.8942 11.1423C61.9232 10.8917 66.0214 0.481903 67.8966 0.481903C70.7818 0.481903 74.5273 16.8484 74.5273 16.8484" fill="white"/>
<path d="M74.5273 17.3304C74.5611 17.3304 74.5998 17.3256 74.6336 17.316C74.8946 17.2581 75.0589 16.9979 74.9961 16.7376C74.102 12.8147 70.9316 0 67.8966 0C65.4947 0 61.4254 10.9785 61.4109 11.0893C61.3819 11.3544 61.5752 11.5906 61.8411 11.6195C62.0924 11.6484 62.3147 11.4797 62.363 11.2387C62.45 10.9544 63.4504 8.37604 64.6973 5.78805C67.0074 1.01688 67.8628 0.963871 67.8966 0.963871C69.4383 0.963871 72.2945 9.2628 74.0537 16.9545C74.1068 17.1762 74.305 17.3304 74.5273 17.3304Z" fill="#050506"/>
<path d="M41.5336 20.3618C41.5336 20.3618 27.4749 29.509 15.2284 94.2474C15.2284 94.2474 15.6634 109.236 25.4644 114.122C35.2654 119.009 56.3173 120.354 56.3173 120.354L74.5323 118.431C74.5323 118.431 59.3281 72.2615 66.0651 62.4878" fill="white"/>
<path d="M56.3123 120.831C56.3316 120.831 56.3461 120.831 56.3654 120.826L74.5804 118.903C74.7254 118.889 74.8559 118.807 74.9332 118.686C75.0106 118.566 75.0299 118.412 74.9864 118.277C74.8366 117.819 59.9321 72.2229 66.4564 62.7577C66.6062 62.536 66.5531 62.2372 66.3308 62.0878C66.1085 61.9384 65.8088 61.9914 65.659 62.2131C59.1927 71.5916 72.077 112.44 73.8797 118.012L56.2978 119.867C55.2539 119.795 35.0719 118.373 25.672 113.689C20.7715 111.245 18.3213 106.108 17.1324 102.233C15.9097 98.2523 15.726 94.739 15.7067 94.2811C21.9894 61.1047 28.7409 42.8875 33.3031 33.4464C38.2519 23.1956 41.7606 20.7859 41.7944 20.7618C42.0167 20.6124 42.0747 20.3185 41.9297 20.0968C41.7847 19.8751 41.4851 19.8124 41.2628 19.957C40.6829 20.3377 26.8947 29.9572 14.745 94.1607C14.7401 94.1944 14.7353 94.2281 14.7353 94.2619C14.7401 94.4161 14.861 98.1222 16.1997 102.493C17.983 108.325 21.1098 112.493 25.2371 114.551C35.0091 119.424 55.4085 120.778 56.2736 120.831C56.293 120.831 56.3026 120.831 56.3123 120.831Z" fill="#050506"/>
<path d="M49.7301 59.9094C66.761 74.1458 80.4525 64.6275 80.4525 64.6275C87.8032 64.6275 89.6397 66.4589 89.6397 66.4589L101.891 47.5236C90.2873 40.8488 84.7972 30.8487 82.3904 25.7835C81.4915 23.8991 81.0228 22.6991 80.8294 22.6076C76.1899 15.8894 68.4284 11.4845 59.6326 11.4845C59.6326 11.4845 47.1977 10.8001 40.3012 21.4798" fill="white"/>
<path d="M49.4206 60.2757C49.2176 60.107 49.1886 59.7986 49.3626 59.5962C49.5318 59.3937 49.8362 59.3648 50.0441 59.5383C66.5772 73.3554 80.0464 64.3191 80.1817 64.2276C80.2639 64.1697 80.3605 64.1408 80.4572 64.1408C86.0536 64.1408 88.5715 65.2059 89.5139 65.7698L101.214 47.6827C92.9646 42.8152 86.4886 35.5186 81.9554 25.9908C81.6557 25.3643 81.4044 24.81 81.1966 24.3474C80.9163 23.7305 80.6505 23.1474 80.5393 22.9931C80.4958 22.9642 80.462 22.9257 80.433 22.8823C75.7113 16.0484 67.9401 11.9713 59.6083 11.9664C59.4874 11.9616 47.3667 11.4315 40.707 21.7401C40.562 21.9618 40.2624 22.0293 40.0401 21.8847C39.8178 21.7401 39.7501 21.4413 39.8951 21.2196C46.864 10.4339 59.5358 11.0026 59.6324 11.0074C68.2252 11.0074 76.2719 15.2147 81.1773 22.2654C81.3851 22.4485 81.5736 22.8486 82.0762 23.9522C82.284 24.41 82.5353 24.9546 82.8301 25.5811C87.3585 35.0994 93.8538 42.3429 102.137 47.1092C102.253 47.1767 102.335 47.2875 102.364 47.4128C102.393 47.5429 102.374 47.6779 102.302 47.7887L90.0504 66.724C89.973 66.8445 89.8426 66.9216 89.7024 66.9409C89.5574 66.9601 89.4124 66.9071 89.3109 66.8107C89.2916 66.7915 87.4455 65.1384 80.607 65.1143C79.9159 65.5625 76.6151 67.5433 71.5406 68.0927C70.7625 68.1794 69.9167 68.2276 69.013 68.2276C63.924 68.218 56.9985 66.6131 49.4206 60.2757Z" fill="#050506"/>
<path d="M110.769 63.0998C110.769 63.0998 110.769 46.608 107.096 46.0007C104.356 45.5429 104.679 46.4489 101.968 47.702C101.045 48.1261 99.7741 48.5935 97.9086 49.0562C95.294 49.7068 93.0661 49.8948 91.1958 49.9767C87.8176 50.1261 85.6138 49.9237 84.4346 51.4996C82.5981 53.943 78.7754 64.4974 84.2848 65.7167C89.7991 66.9408 96.0721 68.5987 99.7451 68.5987C103.423 68.5939 110.769 69.2059 110.769 63.0998Z" fill="#A55319"/>
<path d="M110.01 58.8541C110.01 58.8541 110.677 61.4903 110.662 63.6927C110.643 66.7193 106.352 71.9916 100.823 72.4446C88.76 73.4326 83.5647 70.647 81.7282 63.3216C81.7234 63.3216 104.675 62.5168 110.01 58.8541Z" fill="#A55319"/>
<path d="M45.1337 11.5906C45.1337 11.5906 41.4608 3.04102 53.0934 0.597603C58.5207 -0.539765 75.629 6.96397 76.2428 11.2387C76.2428 11.2387 51.257 19.5329 45.1337 11.5906Z" fill="#A55319"/>
<path d="M63.4938 67.765C55.4037 65.4903 50.0344 61.5529 46.8205 58.4395C45.8829 57.5287 44.3654 58.5408 44.8632 59.7504C47.2361 65.5433 52.301 74.3386 62.4499 80.2664C63.2425 80.7291 64.2381 80.1556 64.2526 79.2399L64.3831 68.9409C64.3879 68.3915 64.0206 67.9144 63.4938 67.765Z" fill="#DBDAD9"/>
<path d="M51.6484 8.96881C51.6484 8.96881 56.2928 19.5569 64.2573 20.2172C64.2573 20.2172 54.031 22.2799 49.8554 16.2846C45.675 10.2893 51.6484 8.96881 51.6484 8.96881Z" fill="#A55319"/>
<path d="M53.6832 21.827C53.6832 21.827 51.9723 11.2967 46.1294 2.95435C45.4432 1.97602 43.9063 2.33747 43.713 3.5134C42.9639 8.03877 41.9055 16.6895 43.6502 21.9233" fill="white"/>
<path d="M43.655 22.4052C43.7033 22.4052 43.7565 22.3956 43.8096 22.3811C44.0609 22.2992 44.2011 22.0245 44.1141 21.7739C42.4081 16.6654 43.4278 8.19292 44.1914 3.59526C44.2591 3.17597 44.578 2.9591 44.8535 2.89645C45.2015 2.81934 45.5301 2.94464 45.7331 3.2338C51.4455 11.3882 53.1853 21.8028 53.2047 21.904C53.2482 22.1642 53.4946 22.3426 53.7604 22.304C54.0214 22.2606 54.2051 22.0148 54.1616 21.7498C54.1422 21.6437 52.3638 11.0122 46.5305 2.67958C46.1004 2.06752 45.3755 1.788 44.6409 1.95667C43.9111 2.12053 43.3602 2.70368 43.2393 3.43622C42.4612 8.12063 41.427 16.7762 43.1958 22.0775C43.2635 22.2799 43.452 22.4052 43.655 22.4052Z" fill="#050506"/>
<path d="M53.8862 27.5379C53.8862 27.5379 56.032 24.9017 59.4343 23.4992C62.8367 22.1016 65.5914 24.4631 64.214 25.5186C62.8366 26.574 55.9015 30.5066 54.8093 30.15C53.7171 29.7933 52.4025 29.0174 53.8862 27.5379Z" fill="#A55319"/>
<path d="M80.1043 19.2293C80.1043 19.2293 77.6589 18.2413 75.0298 18.5835C72.4008 18.9257 71.845 21.6052 73.1305 21.798C74.4161 21.9956 80.259 22.039 80.7374 21.3739C81.211 20.7136 81.6363 19.6775 80.1043 19.2293Z" fill="#A55319"/>
<path d="M60.8843 37.2392C61.0293 37.2392 61.1743 37.1765 61.2661 37.0512C64.3591 33.0174 67.5923 34.0632 67.7276 34.1114C67.9789 34.1982 68.2544 34.0632 68.3414 33.8126C68.4284 33.562 68.2979 33.2873 68.0466 33.2006C67.8871 33.1427 64.0402 31.8511 60.4977 36.4633C60.3334 36.6753 60.3769 36.9789 60.5895 37.138C60.6765 37.2055 60.778 37.2392 60.8843 37.2392Z" fill="#050506"/>
<path d="M83.0524 26.6221C83.0524 26.6221 79.9207 26.9739 79.2973 28.2944L83.0524 26.6221Z" fill="white"/>
<path d="M79.2972 28.7763C79.4808 28.7763 79.65 28.6751 79.737 28.5016C80.1091 27.7209 82.0036 27.2293 83.1103 27.104C83.3761 27.0751 83.5646 26.8341 83.5356 26.5691C83.5066 26.304 83.2698 26.116 82.9991 26.145C82.6512 26.1835 79.5823 26.5691 78.8622 28.092C78.7462 28.333 78.8526 28.6173 79.0942 28.733C79.157 28.7619 79.2295 28.7763 79.2972 28.7763Z" fill="#050506"/>
<path d="M109.396 61.2782C109.396 61.2782 111.315 55.0564 109.749 55.1046C108.183 55.1528 105.061 58.5987 98.9864 59.5336C92.9116 60.4686 84.86 57.0565 84.6667 58.9312C84.4734 60.8059 89.1274 66.5699 93.4915 67.2253C97.8556 67.8807 105.061 68.0446 109.396 61.2782Z" fill="#6D1C28"/>
<path d="M93.4238 67.6976C88.7698 66.9939 83.9756 60.9987 84.1931 58.8781C84.2221 58.5938 84.3574 58.3528 84.5845 58.1793C85.2998 57.6396 86.7931 57.8757 89.5913 58.3769C92.4089 58.883 95.9175 59.5143 98.9187 59.0516C102.679 58.4733 105.235 56.9359 107.096 55.8082C108.222 55.1287 109.039 54.6371 109.735 54.6178C110.058 54.6226 110.334 54.7431 110.522 54.9937C111.392 56.1359 110.232 60.1986 109.855 61.4179C109.841 61.4613 109.826 61.4999 109.802 61.5336C107.048 65.8325 102.829 67.9964 97.2272 67.9964C96.0239 67.9964 94.7577 67.9 93.4238 67.6976ZM109.764 55.5817C109.319 55.5962 108.522 56.0781 107.594 56.6323C105.772 57.7311 103.012 59.3938 99.0637 60.0011C95.903 60.4878 92.3074 59.842 89.4174 59.3215C87.7307 59.0179 85.4254 58.6034 85.1548 58.9697C85.0001 60.4878 89.427 66.1168 93.5688 66.7385C100.654 67.8084 105.83 65.8999 108.957 61.0661C109.735 58.5167 110.116 55.9046 109.764 55.5817Z" fill="#090506"/>
<path d="M107.961 56.2612C107.961 56.2612 105.003 58.2902 103.109 58.8588C100.625 59.601 97.0581 61.2348 89.5189 59.0227L88.881 59.0805C88.881 59.0805 89.3449 60.9504 90.6159 61.6155C91.8918 62.2854 94.2841 64.4156 99.9433 63.471C105.603 62.5264 107.541 59.2878 107.835 58.589C108.135 57.8805 107.961 56.2612 107.961 56.2612Z" fill="white"/>
<path d="M108.246 62.242C108.246 62.242 104.597 67.3698 97.5463 67.1433C90.5 66.9167 88.8858 64.3962 88.8858 64.3962C88.8858 64.3962 89.2531 63.548 90.9591 63.4661C92.8343 63.3745 95.1589 64.5794 98.45 64.2516C107.497 63.3504 105.419 61.307 107.734 61.4082C108.614 61.4468 108.246 62.242 108.246 62.242Z" fill="white"/>
<path d="M55.6503 145.005C70.8588 145.005 83.1878 132.71 83.1878 117.544C83.1878 102.378 70.8588 90.0834 55.6503 90.0834C40.4417 90.0834 28.1127 102.378 28.1127 117.544C28.1127 132.71 40.4417 145.005 55.6503 145.005Z" fill="#D2F9E2"/>
<path d="M89.9877 95.0714C94.6949 95.2015 102.548 107.679 109.087 120.513C110.208 122.715 109.551 125.385 107.56 126.845C107.531 126.865 107.507 126.884 107.478 126.903C105.028 128.71 101.538 127.862 100.127 125.168C97.1259 119.433 93.8975 113.587 92.3268 112.204C92.0417 111.954 91.8049 111.717 91.6067 111.496C90.5145 110.272 88.8665 109.688 87.2427 109.929C85.8992 110.127 84.2946 110.175 82.4872 109.876C76.9487 108.961 70.8352 98.8112 71.072 95.8473C71.3088 92.8834 80.699 94.8208 89.9877 95.0714Z" fill="white"/>
<path d="M99.6968 125.395C98.2421 122.619 93.82 114.171 92.0077 112.57C91.7178 112.315 91.4616 112.064 91.2441 111.819C90.2631 110.715 88.7939 110.19 87.315 110.407C85.7105 110.643 84.0625 110.628 82.4097 110.354C76.7118 109.414 70.3179 99.2257 70.5885 95.8088C70.7963 93.2111 75.6002 93.5871 82.255 94.1124C84.6473 94.3003 87.3585 94.5172 90.0021 94.5895C95.6758 94.7437 104.665 110.758 109.517 120.291C110.745 122.701 110.039 125.616 107.845 127.231L107.806 127.26L107.763 127.289C106.497 128.224 104.882 128.556 103.341 128.2C102.915 128.103 102.51 127.959 102.128 127.766C101.098 127.26 100.243 126.436 99.6968 125.395ZM89.9779 95.5534C87.3102 95.4811 84.5845 95.2642 82.1825 95.0762C76.7843 94.6521 71.6904 94.2473 71.5599 95.8859C71.3473 98.551 77.2675 108.527 82.574 109.404C84.1253 109.66 85.6767 109.679 87.1797 109.452C88.9824 109.182 90.7753 109.828 91.9787 111.178C92.1672 111.39 92.3992 111.616 92.6602 111.848C93.9892 113.019 96.5023 117.183 100.567 124.947C101.18 126.123 102.278 126.966 103.568 127.265C104.834 127.559 106.158 127.284 107.197 126.523L107.284 126.46C109.097 125.13 109.681 122.72 108.671 120.734C101.611 106.869 95.3279 97.9052 91.3988 95.9582C90.872 95.7027 90.4032 95.5678 89.9779 95.5534Z" fill="#050506"/>
<path d="M87.2424 109.337C87.1941 108.541 83.468 97.1678 85.2803 94.363C85.2803 94.363 71.2602 92.4208 70.9316 95.7895C70.6851 98.3004 75.1168 107.698 78.785 108.667C82.4531 109.635 87.2424 109.337 87.2424 109.337Z" fill="#A55319"/>
<path d="M20.8249 102.281C16.1177 102.291 7.94534 114.566 1.08753 127.231C-0.0868468 129.404 0.502761 132.089 2.45523 133.602C2.47939 133.621 2.50839 133.641 2.53739 133.665C4.94415 135.53 8.44796 134.773 9.92681 132.118C13.073 126.46 16.4512 120.701 18.0508 119.356C18.3408 119.11 18.5873 118.884 18.7903 118.667C19.9115 117.472 21.574 116.927 23.193 117.212C24.5268 117.443 26.1313 117.534 27.9485 117.279C33.5063 116.503 39.876 106.513 39.7165 103.539C39.557 100.565 30.1184 102.262 20.8249 102.281Z" fill="white"/>
<path d="M6.64033 135.062C5.08898 135.381 3.48448 135.005 2.20861 134.017L2.16028 133.978C0.00482676 132.311 -0.623443 129.376 0.662094 127C5.75591 117.592 15.1461 101.814 20.8247 101.799V102.281V101.799C23.4683 101.794 26.1844 101.65 28.5814 101.52C35.2459 101.163 40.0595 100.903 40.1996 103.51C40.3833 106.932 33.7284 116.956 28.016 117.751C26.3583 117.983 24.7055 117.959 23.1107 117.679C21.6366 117.424 20.153 117.91 19.1429 118.99C18.9206 119.226 18.6596 119.472 18.36 119.722C16.509 121.274 11.8695 129.612 10.3471 132.349C9.72368 133.472 8.73295 134.33 7.55857 134.793C7.26376 134.908 6.95446 135 6.64033 135.062ZM23.275 116.73C24.7732 116.99 26.3197 117.014 27.8807 116.797C33.2113 116.055 39.378 106.233 39.233 103.563C39.146 101.925 34.0377 102.194 28.6298 102.484C26.223 102.614 23.4925 102.758 20.8247 102.763C17.0986 102.773 9.88317 112.007 1.51268 127.458C0.449449 129.419 0.971396 131.843 2.75472 133.221L2.79338 133.25L2.83204 133.279C3.85177 134.07 5.17114 134.378 6.44218 134.118C7.73738 133.853 8.8586 133.038 9.50137 131.877C13.7639 124.214 16.3833 120.118 17.7365 118.98C18.0023 118.754 18.2392 118.537 18.4325 118.33C18.9786 117.747 19.6407 117.303 20.3608 117.019C21.2742 116.662 22.2794 116.556 23.275 116.73Z" fill="#050506"/>
<path d="M23.2072 116.609C23.2797 115.814 27.2909 104.541 25.5463 101.688C25.5463 101.688 39.6099 100.103 39.8563 103.476C40.04 105.992 35.3715 115.274 31.6792 116.151C27.9869 117.028 23.2072 116.609 23.2072 116.609Z" fill="#A55319"/>
<path d="M48.9277 118.147C48.5652 117.848 48.0867 117.684 47.5986 117.689C47.1105 117.694 46.6417 117.872 46.2841 118.185C45.9313 118.494 45.7186 118.918 45.6896 119.366C45.6606 119.814 45.8201 120.257 46.1294 120.604L50.4403 124.754C50.6191 124.927 50.8366 125.067 51.0783 125.159C51.3199 125.255 51.5761 125.303 51.837 125.303C52.098 125.303 52.3541 125.26 52.5958 125.168C52.8374 125.077 53.0549 124.942 53.2337 124.773L66.3936 112.31C66.5724 112.142 66.7125 111.944 66.8092 111.727C66.9059 111.51 66.9493 111.274 66.9493 111.043C66.9445 110.807 66.8913 110.575 66.7899 110.358C66.6884 110.142 66.5434 109.949 66.3597 109.785C66.1761 109.621 65.9586 109.491 65.7218 109.404C65.485 109.317 65.2289 109.274 64.9727 109.279C64.7166 109.284 64.4653 109.332 64.2284 109.423C63.9916 109.515 63.779 109.65 63.6002 109.819L51.8564 120.961L48.9277 118.147Z" fill="#27AE60"/>
</g>
<defs>
<clipPath id="clip0">
<rect width="110.841" height="145" fill="white"/>
</clipPath>
</defs>
</svg>
