<svg width="127" height="175" viewBox="0 0 127 175" fill="none" xmlns="http://www.w3.org/2000/svg">
<g clip-path="url(#clip0)">
<path d="M73.161 69.6247C73.161 69.6247 77.1005 85.1073 77.6632 88.3915C77.6632 88.3915 87.6994 69.6717 77.1474 62.5403L73.161 69.6247Z" fill="#8D3E2D"/>
<path d="M73.63 60.5228L76.7722 79.2427C76.7722 79.2427 84.1352 71.0791 83.4317 62.4933C82.7282 53.8606 75.4121 51.2802 75.4121 51.2802L73.63 60.5228Z" fill="#A25319"/>
<path d="M72.0824 44.9934L75.2245 63.7132C75.2245 63.7132 82.5875 55.5497 81.8841 46.9639C81.1806 38.3312 73.8645 35.7507 73.8645 35.7507L72.0824 44.9934Z" fill="#E65052"/>
<path d="M69.2685 27.681C69.2685 27.681 73.2079 43.1636 73.7707 46.4478C73.7707 46.4478 83.8069 27.7279 73.2548 20.5966L69.2685 27.681Z" fill="#EC8037"/>
<path d="M62.7027 13.4652C62.7027 13.4652 67.627 20.4089 70.2533 30.9652C70.2533 30.9652 72.1762 26.5081 72.8796 23.9746C74.4273 18.3915 71.9886 10.3687 66.9236 9.3365C61.8586 8.30433 63.031 13.0429 62.7027 13.4652Z" fill="#A25319"/>
<path d="M25.6064 105.188C27.3416 95.8043 36.5336 89.0952 39.9103 84.9196C41.411 83.0898 42.1614 80.7439 42.1614 78.3043C42.1614 74.1756 42.3021 68.4048 42.3021 68.4048C42.7242 49.9665 44.5063 32.2319 45.4443 24.3029C45.9132 20.0804 48.8209 16.6555 52.6666 15.811C57.6847 14.7319 64.0159 15.6233 68.7526 16.6086C72.6451 17.4531 75.5997 20.9249 76.0218 25.1944C77.3819 38.0496 80.1019 65.4491 79.7737 76.9906C79.6799 80.3217 81.1806 83.4182 83.6662 85.3418C88.1215 88.7667 97.3604 93.8338 98.8612 100.731" fill="white"/>
<path d="M25.6064 105.657C25.5595 105.657 25.5595 105.657 25.5126 105.657C25.2781 105.61 25.0905 105.375 25.1374 105.094C26.4505 97.8217 32.1252 92.1917 36.2522 88.063C37.5654 86.7493 38.7378 85.6233 39.5351 84.6381C40.942 82.9021 41.6924 80.6971 41.6924 78.3512C41.6924 74.2694 41.8331 68.4987 41.8331 68.4517C42.2552 50.2949 43.9904 33.0295 44.9753 24.3499C45.4911 19.8928 48.5395 16.3271 52.5259 15.4826C57.6846 14.3566 64.2035 15.2949 68.7995 16.2802C72.9265 17.1716 75.9749 20.7842 76.4439 25.2882C77.6632 36.9705 80.524 65.4021 80.1957 77.1314C80.1019 80.2279 81.5089 83.2306 83.9007 85.0603C84.7448 85.7172 85.7766 86.4678 86.9021 87.2185C91.592 90.5027 98.017 95.0067 99.2832 100.731C99.3301 100.965 99.1894 101.247 98.9081 101.294C98.6736 101.34 98.3922 101.2 98.3453 100.918C97.1728 95.5228 90.8885 91.1595 86.3394 87.9692C85.2138 87.1716 84.1821 86.4678 83.291 85.7641C80.6647 83.6997 79.1171 80.4625 79.2109 77.0375C79.4922 65.3552 76.6784 36.9705 75.459 25.3351C75.0369 21.2534 72.2231 17.9223 68.5181 17.1247C64.0159 16.1394 57.6377 15.248 52.6666 16.3271C49.1492 17.1247 46.4291 20.3619 45.9601 24.3968C44.9753 33.0764 43.24 50.3418 42.818 68.4517C42.818 68.4987 42.6304 74.2694 42.6773 78.3512C42.6773 80.9316 41.8331 83.3713 40.3324 85.248C39.4882 86.2802 38.3157 87.4531 37.0026 88.7668C32.9694 92.8016 27.3885 98.2909 26.1222 105.282C26.0284 105.469 25.8408 105.657 25.6064 105.657Z" fill="#050506"/>
<path d="M76.5377 28.0563C76.5377 26.3204 76.2094 24.6783 75.6466 23.13L71.801 11.6354C58.0129 8.3043 49.0085 12.7614 49.0085 12.7614L45.116 22.7078C44.4594 24.3968 44.0842 26.1796 44.0842 28.0563C44.0842 30.5898 44.7408 32.9357 45.8663 35.0469C47.2733 39.6917 51.8693 55.3619 51.541 61.7426L70.1126 61.0389C70.1126 61.0389 70.9568 45.9786 74.4742 35.4692C75.8342 33.311 76.5377 30.7775 76.5377 28.0563Z" fill="white"/>
<path d="M51.541 62.2118C51.4003 62.2118 51.3065 62.1649 51.2127 62.071C51.1189 61.9772 51.072 61.8364 51.072 61.6957C51.4003 55.4088 46.8512 39.8793 45.4442 35.1877C44.2249 32.9356 43.6152 30.5429 43.6152 28.0094C43.6152 26.1796 43.9435 24.3499 44.647 22.567C44.647 22.5201 44.647 22.5201 44.6939 22.4732L48.5864 12.5268C48.6333 12.433 48.7271 12.3391 48.8209 12.2922C49.1961 12.1045 58.1536 7.7882 71.9417 11.1193C72.0824 11.1662 72.2231 11.26 72.27 11.4477L76.1156 22.9423C76.1156 22.9893 76.1156 22.9893 76.1156 23.0362C76.6784 24.6783 77.0067 26.3673 77.0067 28.0563C77.0067 30.7306 76.3032 33.3579 74.9431 35.6568C71.4727 46.0255 70.6285 60.945 70.6285 61.0858C70.6285 61.3204 70.4409 61.508 70.1595 61.508L51.541 62.2118C51.5879 62.2118 51.541 62.2118 51.541 62.2118ZM45.5849 22.7547C45.5849 22.8016 45.5849 22.8016 45.538 22.8485C44.8815 24.5375 44.5063 26.2734 44.5063 28.0563C44.5063 30.4491 45.116 32.7011 46.2415 34.8123C46.2415 34.8592 46.2884 34.8592 46.2884 34.9062C47.6485 39.4571 52.0569 54.5174 51.9631 61.2734L69.6437 60.6166C69.8312 58.0831 70.8161 44.8056 74.0052 35.3284C74.0052 35.2815 74.0521 35.2815 74.0521 35.2346C75.3652 33.0295 76.0218 30.5429 76.0218 28.0563C76.0218 26.4611 75.7404 24.819 75.1776 23.2708C75.1776 23.2238 75.1776 23.1769 75.1307 23.1769L71.3789 12.0107C59.0447 9.10187 50.5561 12.5268 49.2899 13.0898L45.5849 22.7547Z" fill="#050506"/>
<path d="M47.836 17.8753C47.836 17.8753 44.1311 9.19572 50.2747 0.469177L55.5742 14.3566" fill="white"/>
<path d="M47.836 18.3445C47.6485 18.3445 47.4609 18.2507 47.414 18.063C47.3671 17.9692 43.709 9.00806 49.8996 0.234601C49.9934 0.0938504 50.181 1.6585e-05 50.3216 0.0469335C50.5092 0.0469335 50.6499 0.187684 50.6968 0.328435L55.9963 14.2158C56.0901 14.4504 55.9494 14.7319 55.7149 14.8258C55.4804 14.9196 55.199 14.7788 55.1053 14.5443L50.1341 1.50136C44.9753 9.61798 48.2112 17.5939 48.2581 17.6877C48.3519 17.9223 48.2581 18.2038 48.0236 18.2976C47.9767 18.2976 47.8829 18.3445 47.836 18.3445Z" fill="#050506"/>
<path d="M72.8327 17.8753C72.8327 17.8753 76.5377 9.19572 70.394 0.469177L65.0945 14.3566" fill="white"/>
<path d="M72.8327 18.3445C72.7858 18.3445 72.692 18.3445 72.6451 18.2976C72.4106 18.2038 72.3168 17.9223 72.4106 17.6877C72.4575 17.5939 75.6935 9.61798 70.5347 1.50136L65.5635 14.5443C65.4697 14.7788 65.1883 14.9196 64.9538 14.8258C64.7193 14.7319 64.5786 14.4504 64.6724 14.2158L69.9719 0.328437C70.0188 0.187687 70.1595 0.046936 70.3471 0.046936C70.5347 0.046936 70.6754 0.0938529 70.7692 0.234604C76.9598 9.05498 73.2548 17.9692 73.2548 18.063C73.161 18.2038 73.0203 18.3445 72.8327 18.3445Z" fill="#050506"/>
<path d="M51.541 62.7748C49.9934 60.1005 48.4926 53.2037 50.181 52.3123C54.4956 50.0134 55.5742 53.9075 61.0144 53.9075C65.9387 53.9075 68.7526 48.6528 71.7541 52.6407C73.8645 55.4558 71.0506 63.9477 68.2367 65.9651C63.4062 69.3901 54.777 68.3579 51.541 62.7748Z" fill="#A25319"/>
<path d="M66.6422 25.3351C66.6422 25.3351 68.0491 24.4437 69.7844 24.6783C71.4727 24.9129 72.7858 26.4611 72.1293 27.0711C71.4727 27.681 71.0975 27.118 69.5968 26.8834C68.096 26.6488 65.9387 27.4933 65.8918 26.8365C65.798 26.1796 65.5635 25.7574 66.6422 25.3351Z" fill="#A25319"/>
<path d="M49.1023 23.4116C49.1023 23.4116 50.5092 22.5201 52.2445 22.7547C53.9328 22.9893 55.246 24.5376 54.5894 25.1475C53.9328 25.7574 53.5576 25.1944 52.0569 24.9598C50.5561 24.7252 48.3988 25.5697 48.3519 24.9129C48.305 24.2561 48.0705 23.8807 49.1023 23.4116Z" fill="#A25319"/>
<path d="M60.4047 65.8713C55.1521 65.8713 52.01 63.5255 51.9631 63.4786C51.7755 63.3378 51.7286 63.0094 51.8693 62.8217C52.01 62.6341 52.3383 62.5872 52.5259 62.7279C52.5728 62.7748 59.4668 67.8419 69.925 62.3526C70.1595 62.2118 70.4409 62.3057 70.5816 62.5402C70.7223 62.7748 70.6285 63.0563 70.394 63.1971C66.5484 65.2145 63.1717 65.8713 60.4047 65.8713Z" fill="#050506"/>
<path d="M53.0417 55.6434C52.2914 55.6434 51.7286 53.626 53.0417 53.5322C54.3549 53.4383 57.4502 55.4088 56.0432 56.3941C54.6363 57.3794 53.0417 55.6434 53.0417 55.6434Z" fill="#803D12"/>
<path d="M69.6436 54.9397C70.394 54.9397 70.9568 52.9223 69.6436 52.8284C68.3305 52.7346 65.2352 54.7051 66.6422 55.6904C68.0491 56.6756 69.6436 54.9397 69.6436 54.9397Z" fill="#803D12"/>
<path d="M61.3896 13.9813C59.373 16.8901 60.8268 21.2534 60.8268 21.2534C60.733 20.4558 62.7965 18.3445 62.7965 18.3445C67.3925 14.7319 67.2049 10.8378 67.2049 10.8378C67.2049 10.8378 67.4863 7.83516 63.3593 6.52148" fill="#A25319"/>
<path d="M66.3608 5.91153C65.9387 5.63002 61.202 1.68901 56.5122 4.50402C51.8224 7.31903 55.0584 20.4088 55.0584 20.4088C55.0584 20.4088 63.1717 15.6233 64.6256 11.9638C66.0794 8.30429 67.2988 6.56836 66.3608 5.91153Z" fill="#A25319"/>
<path d="M48.3519 30.5429C48.3519 30.5429 49.6182 33.0295 54.6832 32.3258L48.3519 30.5429Z" fill="white"/>
<path d="M52.9948 32.9357C49.1023 32.9357 47.9767 30.8713 47.9298 30.7775C47.7891 30.5429 47.8829 30.2614 48.1174 30.1676C48.3519 30.0268 48.6333 30.1207 48.7271 30.3552C48.774 30.4491 49.9465 32.5134 54.5425 31.9035C54.777 31.8566 55.0584 32.0442 55.0584 32.3257C55.1053 32.5603 54.9177 32.8418 54.6363 32.8418C54.0735 32.8887 53.5107 32.9357 52.9948 32.9357Z" fill="#050506"/>
<path d="M50.4623 32.0912C50.4623 32.0912 50.6968 33.3579 51.1658 33.7333C51.6348 34.1086 52.8541 34.3432 53.4169 33.7802C53.9797 33.1703 53.9797 32.4665 53.9797 32.4665C53.9797 32.4665 50.7906 32.4196 50.4623 32.0912Z" fill="#040505"/>
<path d="M72.1761 30.6837C72.1761 30.6837 70.9099 33.1703 65.8449 32.4666L72.1761 30.6837Z" fill="white"/>
<path d="M67.5801 33.0765C67.0643 33.0765 66.4546 33.0295 65.8449 32.9357C65.6104 32.8888 65.4228 32.6542 65.4228 32.4196C65.4697 32.185 65.7042 31.9974 65.9387 31.9974C70.6285 32.6073 71.7541 30.496 71.7541 30.4491C71.8948 30.2145 72.1762 30.1207 72.3637 30.2614C72.5982 30.4022 72.692 30.6837 72.5513 30.8714C72.5513 31.0121 71.4727 33.0765 67.5801 33.0765Z" fill="#050506"/>
<path d="M70.0657 32.2319C70.0657 32.2319 69.8312 33.4987 69.3623 33.874C68.8933 34.2494 67.6739 34.4839 67.1112 33.9209C66.5484 33.311 66.5484 32.6073 66.5484 32.6073C66.5484 32.6073 69.7374 32.5604 70.0657 32.2319Z" fill="#040505"/>
<path d="M53.8859 38.1434C53.0886 38.1434 52.1507 38.0496 51.0251 37.8619C47.2733 37.1582 47.0857 34.7185 46.9919 33.0764C46.9919 32.8887 46.945 32.7011 46.945 32.5134C46.7574 31.0121 46.2884 30.1207 45.9132 29.8861C45.1629 29.5107 45.3505 28.4316 45.6787 27.681C45.7725 27.4933 45.9601 27.3995 46.1477 27.3995C48.0236 27.681 57.4502 28.9946 58.3412 29.4638C59.9358 30.3083 58.435 35.2346 58.0129 36.2198C57.5908 37.2051 56.5122 38.1434 53.8859 38.1434ZM46.3822 28.4316C46.2884 28.7601 46.2415 29.0416 46.2884 29.1354C47.0857 29.5576 47.6485 30.7775 47.8361 32.4665C47.8361 32.6542 47.8829 32.8418 47.8829 33.0764C47.9767 34.6716 48.1174 36.4544 51.1658 36.9705C54.4487 37.5804 56.5591 37.2051 57.1219 35.8914C57.9191 34.0148 58.3881 30.5898 57.8722 30.3552C57.3095 30.0268 50.6968 28.9946 46.3822 28.4316Z" fill="#050506"/>
<path d="M44.0842 25.9919L46.1008 27.9155L58.1067 29.933L58.5757 31.012L46.1008 29.5576L44.0842 27.3056C44.0842 27.3056 43.24 26.4142 44.0842 25.9919Z" fill="#040505"/>
<path d="M66.6891 38.1434C64.0159 38.1434 62.9841 37.1582 62.562 36.2198C62.14 35.2346 60.6392 30.2614 62.2338 29.4638C63.1248 28.9946 72.5513 27.681 74.4273 27.3995C74.6149 27.3526 74.8493 27.4933 74.8962 27.681C75.2714 28.4786 75.4121 29.5107 74.6617 29.8861C74.2397 30.0737 73.7707 30.9652 73.63 32.5134C73.63 32.7011 73.5831 32.8887 73.5831 33.0764C73.4893 34.7185 73.3017 37.1582 69.5499 37.8619C68.4243 38.0496 67.4863 38.1434 66.6891 38.1434ZM74.1459 28.4316C69.8781 29.0416 63.2655 30.0268 62.6558 30.3552C62.14 30.6367 62.6089 34.0617 63.4062 35.8914C63.969 37.1582 66.0794 37.5335 69.3623 36.9705C72.4106 36.4075 72.5513 34.6247 72.6451 33.0764C72.6451 32.8887 72.692 32.6542 72.692 32.4665C72.8796 30.7306 73.4424 29.5107 74.2397 29.1354C74.2866 28.9946 74.2397 28.7131 74.1459 28.4316Z" fill="#050506"/>
<path d="M76.3032 25.9919L74.2866 27.9155L62.2807 29.933L61.8117 31.012L74.2866 29.5576L76.3032 27.3994C76.3032 27.3056 77.1943 26.4142 76.3032 25.9919Z" fill="#040505"/>
<path d="M58.5757 31.5281C58.5757 31.5281 60.264 30.2614 61.9993 31.6689L62.14 32.7949C62.14 32.7949 60.4516 31.3405 58.4819 32.7949L58.5757 31.5281Z" fill="#040505"/>
<path d="M29.9679 158.532C29.9679 158.532 28.4202 143.566 27.7637 133.432C26.7319 116.823 17.2585 103.076 22.558 98.197C28.2796 92.8485 41.88 87.8753 41.88 87.8753C41.88 87.8753 49.9934 94.1622 62.4683 96.6488C64.2504 97.0241 63.6407 101.106 64.5318 102.466C66.3139 97.2118 81.7434 88.4852 81.7434 88.4852C81.7434 88.4852 98.9081 92.2855 103.176 98.5724C108.616 106.642 105.896 108.941 103.739 119.685C101.581 130.429 95.0155 153.747 94.781 159.189" fill="white"/>
<path d="M94.8279 159.611C94.5465 159.611 94.3589 159.377 94.3589 159.142C94.4996 155.905 96.7977 146.756 99.2364 137.044C100.831 130.617 102.472 124.001 103.363 119.591C103.832 117.198 104.348 115.228 104.817 113.492C106.318 107.627 107.021 104.953 102.894 98.807C99.0019 93.0831 83.7131 89.3767 81.931 88.9544C80.2895 89.8927 66.6891 97.8686 65.0476 102.607C65.0007 102.795 64.8601 102.889 64.6725 102.936C64.4849 102.983 64.3442 102.889 64.2035 102.748C63.7814 102.138 63.6407 101.106 63.5 100.027C63.3593 98.7131 63.1717 97.2587 62.4214 97.1179C51.072 94.8659 43.1931 89.4236 41.8331 88.3914C40.0041 89.0951 28.092 93.693 22.8863 98.5254C20.1193 101.106 21.8076 106.642 23.9649 113.68C25.6533 119.216 27.7637 126.113 28.2327 133.432C28.8423 143.425 30.39 158.391 30.4369 158.532C30.4838 158.767 30.2962 159.001 30.0148 159.048C29.7334 159.095 29.5458 158.907 29.4989 158.626C29.4989 158.485 27.9513 143.519 27.2947 133.479C26.8726 126.253 24.856 119.732 23.0739 113.961C20.8228 106.642 19.0406 100.824 22.2297 97.8686C27.9982 92.5201 41.1765 87.6876 41.7393 87.4531C41.88 87.4061 42.0676 87.4061 42.2083 87.5C42.3021 87.5469 50.4154 93.7399 62.6089 96.1796C64.0159 96.4611 64.2504 98.2909 64.438 99.886C64.4849 100.355 64.5787 100.824 64.6256 101.247C67.7677 95.8981 80.993 88.3914 81.5558 88.063C81.6496 88.0161 81.7903 87.9691 81.8841 88.0161C82.5875 88.1568 99.2832 91.9102 103.598 98.2909C107.959 104.765 107.209 107.721 105.661 113.727C105.239 115.462 104.723 117.386 104.254 119.779C103.363 124.189 101.722 130.851 100.127 137.279C97.8294 146.521 95.4376 156.046 95.2969 159.189C95.2969 159.424 95.1093 159.611 94.8279 159.611Z" fill="#050506"/>
<path d="M21.9014 98.9477C21.9014 98.9477 18.7123 101.857 15.0074 110.395C7.36298 127.989 5.11187 133.432 4.87738 134.98C4.59599 136.528 20.9634 144.645 20.9634 144.645C20.9634 144.645 25.8877 140.375 28.8892 133.432" fill="white"/>
<path d="M20.9165 145.114C20.8227 145.114 20.7758 145.114 20.7289 145.067C20.682 145.067 16.6019 143.003 12.5687 140.798C4.17392 136.2 4.31461 135.402 4.40841 134.886C4.6898 133.291 6.84711 127.989 14.5853 110.208C18.2902 101.716 21.4324 98.7131 21.5731 98.6193C21.7607 98.4316 22.0421 98.4785 22.2297 98.6662C22.4173 98.8539 22.3704 99.1354 22.1828 99.323C22.1359 99.37 19.0406 102.326 15.4295 110.583C7.92577 127.895 5.62776 133.432 5.34637 135.027C5.81535 136.106 13.5066 140.422 20.8696 144.082C21.8545 143.143 25.8877 139.155 28.4671 133.244C28.5609 133.009 28.8423 132.916 29.0768 133.009C29.3113 133.103 29.4051 133.385 29.3113 133.619C26.3098 140.563 21.4324 144.832 21.2448 144.973C21.151 145.067 21.0572 145.114 20.9165 145.114Z" fill="#050506"/>
<path d="M104.63 100.777C118.324 123.485 115.463 122.359 120.387 133.713C120.387 133.713 119.684 137.42 118.042 141.361C115.416 147.694 106.693 148.304 103.082 142.487C100.081 137.607 99.3301 137.748 97.079 131.696" fill="white"/>
<path d="M110.257 146.991C107.162 146.991 104.301 145.395 102.66 142.721C101.769 141.267 101.065 140.235 100.456 139.343C99.0487 137.326 98.2046 136.059 96.61 131.79C96.5162 131.555 96.6569 131.273 96.8914 131.18C97.1259 131.086 97.4073 131.227 97.5011 131.461C99.0487 135.637 99.8929 136.81 101.253 138.78C101.863 139.672 102.566 140.704 103.504 142.158C105.099 144.739 107.959 146.193 110.961 145.958C113.962 145.724 116.448 143.894 117.62 141.126C119.027 137.654 119.778 134.37 119.918 133.666C118.511 130.382 117.761 128.177 117.058 126.066C115.322 120.952 113.915 116.917 104.301 100.918C104.161 100.684 104.254 100.402 104.442 100.261C104.677 100.121 104.958 100.214 105.099 100.402C114.76 116.495 116.167 120.576 117.949 125.737C118.699 127.895 119.449 130.1 120.856 133.385C120.903 133.479 120.903 133.572 120.903 133.666C120.903 133.713 120.2 137.466 118.511 141.407C117.245 144.504 114.431 146.568 111.055 146.803C110.726 146.991 110.492 146.991 110.257 146.991Z" fill="#050506"/>
<path d="M62.7027 105.61C62.7027 105.61 58.7633 100.402 59.7013 98.4316C60.6392 96.4611 62.5151 95.8512 64.3911 95.8512C66.267 95.8512 69.0809 95.4289 70.3002 97.8217C71.6603 100.402 69.3623 104.812 68.096 105.422C66.8767 106.032 62.7027 105.61 62.7027 105.61Z" fill="#27AC60"/>
<path d="M43.1462 113.82L39.1599 120.483C38.1281 122.218 39.3475 124.424 41.3641 124.424H49.3837C51.4003 124.424 52.6196 122.218 51.5879 120.483L47.6016 113.82C46.5698 112.131 44.1311 112.131 43.1462 113.82ZM47.0857 114.149L51.1189 120.858C51.6817 121.796 51.0251 123.016 49.8996 123.016H41.88C40.7544 123.016 40.0979 121.796 40.6606 120.858L44.6939 114.149C45.2098 113.21 46.5229 113.21 47.0857 114.149Z" fill="#3DBCE3"/>
<path d="M45.4911 115.509L42.8179 119.966C42.3959 120.67 42.9117 121.515 43.709 121.515H49.0554C49.8527 121.515 50.3685 120.623 49.9465 119.966L47.2733 115.509C46.8512 114.853 45.9132 114.853 45.4911 115.509ZM47.2264 116.588L48.9616 119.497C49.1023 119.779 48.9147 120.107 48.6333 120.107H45.1629C44.8346 120.107 44.647 119.779 44.8346 119.497L46.5698 116.588C46.7105 116.307 47.0857 116.307 47.2264 116.588Z" fill="#3DBCE3"/>
<path d="M58.8102 160.878C58.8102 160.878 60.7799 121.796 62.4682 105.375C62.4682 105.375 66.6422 104.906 67.8615 105.141C69.1278 105.375 72.9734 151.448 72.9734 161.582C72.9734 161.582 71.0037 166.555 66.1732 170.543C61.3427 166.883 59.373 162.004 58.8102 160.878Z" fill="#27AC60"/>
<path d="M53.2762 99.5576C53.6045 99.5576 58.2474 102.044 61.4834 101.622C64.7193 101.2 69.0809 101.95 76.4439 96.3204L75.0838 93.1769C75.0838 93.1769 69.9719 97.7748 59.1854 95.0536" fill="#27AC60"/>
<path d="M41.0827 82.1984C41.0827 82.1984 38.7847 82.5738 37.1433 84.2628C35.5019 85.9987 34.4232 89.0483 33.6259 90.0805C33.6259 90.0805 41.7393 100.496 54.4018 101.528C54.4018 101.528 58.5757 97.1649 61.0613 97.5872C63.5469 98.0094 64.2035 103.217 64.2035 103.217C64.2035 103.217 63.7814 95.1006 60.6861 94.0684C57.5439 92.9893 45.4442 91.5349 41.0827 82.1984Z" fill="white"/>
<path d="M64.1566 103.686C63.9221 103.686 63.7345 103.499 63.6876 103.264C63.5469 101.904 62.7027 98.3378 60.9675 98.0563C59.0916 97.7279 55.8556 100.684 54.7301 101.857C54.6363 101.95 54.4956 101.997 54.3549 101.997C41.5986 100.965 33.2977 90.5027 33.2508 90.362C33.1101 90.1743 33.1101 89.9397 33.2508 89.7989C33.5321 89.4236 33.8604 88.7668 34.2825 87.9692C34.9391 86.6555 35.7364 85.0603 36.815 83.9343C38.5502 82.1046 40.942 81.7292 41.0358 81.7292C41.2234 81.6823 41.4579 81.8231 41.5517 82.0108C45.1629 89.7051 54.3549 92.004 58.7633 93.0831C59.6075 93.3177 60.3109 93.4585 60.8268 93.6461C64.1566 94.7721 64.6256 102.373 64.6725 103.217C64.6725 103.452 64.4849 103.639 64.1566 103.686C64.2035 103.686 64.2035 103.686 64.1566 103.686ZM34.1887 90.0805C35.5488 91.6756 43.1462 100.027 54.2142 101.059C55.1053 100.168 58.6695 96.7426 61.1082 97.118C61.8117 97.2587 62.4214 97.681 62.8903 98.2909C62.3745 96.5081 61.6241 94.866 60.4516 94.4906C59.9827 94.3499 59.2792 94.1622 58.4819 93.9746C53.9797 92.8485 44.6939 90.5965 40.8013 82.7145C40.1448 82.9022 38.5971 83.3713 37.4716 84.5912C36.4867 85.5764 35.7364 87.1716 35.0798 88.3914C34.7984 89.0483 34.4701 89.6582 34.1887 90.0805Z" fill="#050506"/>
<path d="M64.1566 103.217C64.1566 103.217 66.4546 96.5549 69.5499 94.6783C72.692 92.8016 80.1488 89.0482 81.6027 82.1984C81.6027 82.1984 83.1503 82.7144 85.2607 85.1072C86.2456 86.2332 87.418 88.626 88.4967 90.0804C88.4967 90.0804 83.291 96.3203 76.2094 99.4638C76.2094 99.4638 72.4575 96.3203 70.394 96.7426C68.3305 97.1648 64.1566 103.217 64.1566 103.217Z" fill="white"/>
<path d="M64.1566 103.686C64.0628 103.686 64.0159 103.686 63.969 103.639C63.7814 103.546 63.6407 103.311 63.7345 103.076C63.8283 102.795 66.1263 96.2265 69.3623 94.3029C69.6436 94.1153 69.9719 93.9276 70.3002 93.7399C73.6769 91.7694 79.9143 88.1568 81.1806 82.1045C81.2275 81.9638 81.2744 81.87 81.4151 81.7761C81.5089 81.7292 81.6496 81.6823 81.7902 81.7292C81.8371 81.7292 83.4786 82.2922 85.6359 84.7788C86.1987 85.4356 86.8083 86.4678 87.4649 87.5469C87.9339 88.3445 88.4498 89.189 88.9188 89.7989C89.0595 89.9866 89.0595 90.2212 88.9188 90.3619C88.6843 90.6434 83.5724 96.7426 76.4908 99.8391C76.3501 99.933 76.1156 99.886 76.0218 99.7922C75.0369 98.9477 72.1292 96.8834 70.5816 97.1649C69.2216 97.4464 66.2201 101.153 64.6256 103.405C64.4849 103.592 64.3442 103.686 64.1566 103.686ZM81.9778 82.8552C80.3833 88.9544 74.1459 92.567 70.7692 94.4906C70.4409 94.6783 70.1126 94.8659 69.8312 95.0536C68.3774 95.945 67.0643 98.0094 66.1263 99.8391C67.4863 98.197 69.1278 96.508 70.3471 96.2734C72.3637 95.8512 75.4121 98.1501 76.3501 98.9008C82.2592 96.1796 86.9021 91.2533 87.9339 90.0335C87.5118 89.4236 87.0897 88.7198 86.6676 88.0161C86.058 87.0308 85.4952 85.9986 84.9324 85.3887C83.6193 83.9343 82.5406 83.1836 81.9778 82.8552Z" fill="#050506"/>
<path d="M35.1267 147.976C34.517 151.119 34.1887 163.599 27.9513 163.881C21.7138 164.209 18.5716 162.004 18.5716 162.004C18.5716 162.004 1.12556 153.277 0.515882 146.756C-0.0937935 140.188 9.56721 123.344 10.5052 122.406" fill="white"/>
<path d="M26.7319 164.397C21.4793 164.397 18.7123 162.661 18.3372 162.426C17.3054 161.91 0.656579 153.418 6.00889e-06 146.756C-0.656567 139.953 9.23893 122.922 10.13 122.031C10.3176 121.843 10.599 121.843 10.7866 122.031C10.9742 122.218 10.9742 122.5 10.7866 122.688C9.9424 123.532 0.328292 140.282 0.937967 146.662C1.54764 152.902 18.6185 161.488 18.7592 161.582C18.7592 161.582 18.8061 161.582 18.8061 161.629C18.853 161.629 21.9014 163.693 27.8575 163.412C32.688 163.177 33.7197 154.685 34.2825 150.134C34.4232 149.196 34.4701 148.445 34.6108 147.882C34.6577 147.647 34.8922 147.46 35.1736 147.507C35.4081 147.554 35.5956 147.788 35.5487 148.07C35.455 148.586 35.3612 149.336 35.2674 150.228C34.6577 155.06 33.579 164.068 27.9513 164.35C27.5292 164.397 27.1071 164.397 26.7319 164.397Z" fill="#050506"/>
<path d="M91.8733 150.603C92.483 153.747 92.8113 166.227 99.0487 166.508C105.286 166.836 108.428 164.631 108.428 164.631C108.428 164.631 125.874 155.905 126.531 149.336C127.141 142.768 117.48 125.925 116.542 124.987" fill="white"/>
<path d="M100.268 167.024C99.8929 167.024 99.4708 167.024 99.0488 166.977C93.421 166.696 92.3423 157.688 91.7327 152.855C91.6389 151.964 91.5451 151.166 91.4513 150.697C91.4044 150.462 91.5451 150.181 91.8264 150.134C92.0609 150.087 92.3423 150.228 92.3892 150.509C92.483 151.025 92.5768 151.776 92.7175 152.761C93.2803 157.312 94.312 165.804 99.1425 166.039C105.146 166.32 108.194 164.256 108.194 164.256L108.241 164.209C108.428 164.115 125.499 155.53 126.062 149.29C126.672 142.909 117.058 126.206 116.213 125.315C116.026 125.127 116.026 124.846 116.213 124.658C116.401 124.471 116.682 124.471 116.87 124.658C117.761 125.55 127.657 142.58 127 149.383C126.343 156.046 109.742 164.491 108.663 165.054C108.288 165.288 105.521 167.024 100.268 167.024Z" fill="#050506"/>
<path d="M9.52029 139.249C9.52029 139.249 12.8032 136.575 18.8999 137.513L9.52029 139.249Z" fill="white"/>
<path d="M9.5203 139.718C9.37961 139.718 9.23892 139.672 9.14512 139.531C9.00442 139.343 9.00442 139.015 9.19202 138.874C9.33271 138.78 12.7094 136.106 18.8999 137.044C19.1344 137.091 19.322 137.326 19.2751 137.56C19.2282 137.795 18.9937 137.983 18.7592 137.936C12.9439 137.044 9.80169 139.531 9.75479 139.531C9.75479 139.672 9.661 139.718 9.5203 139.718Z" fill="#050506"/>
<path d="M115.604 141.267C115.604 141.267 109.038 141.126 103.739 144.223L115.604 141.267Z" fill="white"/>
<path d="M103.739 144.692C103.598 144.692 103.41 144.598 103.316 144.457C103.176 144.222 103.27 143.941 103.504 143.8C108.85 140.657 115.322 140.751 115.604 140.751C115.885 140.751 116.073 140.985 116.073 141.22C116.073 141.501 115.885 141.689 115.604 141.689C115.557 141.689 109.132 141.595 104.02 144.598C103.926 144.692 103.832 144.692 103.739 144.692Z" fill="#050506"/>
<path d="M109.695 175H17.3054C16.1798 175 15.2419 174.062 15.2419 172.936V112.413C15.2419 111.287 16.1798 110.349 17.3054 110.349H109.695C110.82 110.349 111.758 111.287 111.758 112.413V172.983C111.758 174.109 110.82 175 109.695 175Z" fill="#A2A1A1"/>
<path d="M59.9358 135.168L52.5728 147.46C50.6499 150.65 52.9479 154.685 56.6529 154.685H71.4258C75.1307 154.685 77.4287 150.65 75.5059 147.46L68.1429 135.168C66.267 132.071 61.7648 132.071 59.9358 135.168ZM67.205 135.731L74.6149 148.07C75.6466 149.806 74.4273 152.058 72.3638 152.058H57.544C55.5273 152.058 54.2611 149.853 55.2928 148.07L62.7027 135.731C63.7345 134.042 66.2201 134.042 67.205 135.731Z" fill="#808080"/>
<path d="M64.2973 138.311L59.373 146.521C58.6226 147.788 59.5137 149.383 61.0144 149.383H70.863C72.3169 149.383 73.2548 147.788 72.5045 146.521L67.5333 138.311C66.7829 137.044 65.0477 137.044 64.2973 138.311ZM67.4864 140.235L70.7223 145.583C71.0037 146.052 70.6754 146.709 70.1127 146.709H63.6876C63.1248 146.709 62.7496 146.099 63.0779 145.583L66.3139 140.235C66.5015 139.765 67.205 139.765 67.4864 140.235Z" fill="#808080"/>
</g>
<defs>
<clipPath id="clip0">
<rect width="127" height="175" fill="white"/>
</clipPath>
</defs>
</svg>
